# xmcd
#
# Track frame offsets:
#	150
#	11874
#	29484
#	46376
#	56275
#	79794
#	98939
#	112959
#	128201
#	146126
#	165755
#	180565
#	196186
#
# Disc length: 2867 seconds
#
# Revision: 1
# Processed by: cddbd v1.5.2PL0 Copyright (c) Steve Scherf et al.
# Submitted via: EasyCDDAExtractor 8.2.3.1
#
DISCID=a50b310d
DTITLE=Gary P  Nunn - Nobody But Me
DYEAR=1999
DGENRE=Country
TTITLE0=Austin Pickers
TTITLE1=Nobody But Me
TTITLE2=Pour Beer In My Face
TTITLE3=You Wouldn't Know Me
TTITLE4=There's Just Tonight
TTITLE5=Gerogia Rose
TTITLE6=Kara Lee
TTITLE7=Colorado River
TTITLE8=Texas Lonesome
TTITLE9=Tennessee Road
TTITLE10=You Can't Get There From Here
TTITLE11=Darling I'll Love You Always
TTITLE12=The Money's No Good
EXTD=
EXTT0=
EXTT1=
EXTT2=
EXTT3=
EXTT4=
EXTT5=
EXTT6=
EXTT7=
EXTT8=
EXTT9=
EXTT10=
EXTT11=
EXTT12=
PLAYORDER=
